<svg width="22" height="22" viewBox="0 0 22 22" fill="none" xmlns="http://www.w3.org/2000/svg">
<g id="Icons/add">
<mask id="mask0" mask-type="alpha" maskUnits="userSpaceOnUse" x="0" y="0" width="22" height="22">
<path id="Icons/add_2" d="M10 21C10 21.5523 10.4477 22 11 22C11.5523 22 12 21.5523 12 21V12H21C21.5523 12 22 11.5523 22 11C22 10.4477 21.5523 10 21 10H12V1C12 0.447716 11.5523 0 11 0C10.4477 0 10 0.447716 10 1V10H1C0.447716 10 0 10.4477 0 11C0 11.5523 0.447716 12 1 12H10V21Z" fill="black"/>
</mask>
<g mask="url(#mask0)">
<g id="Swatches/Primary/Purple">
<rect id="Rectangle" x="-1" y="-1" width="24" height="24" fill="#A369EC"/>
</g>
</g>
</g>
</svg>
